<svg width="206" height="64" viewBox="0 0 206 64" fill="none" xmlns="http://www.w3.org/2000/svg">
<g clip-path="url(#clip0_95_1949)">
<path d="M56.2221 0.516974C53.651 2.367 51.3908 4.43784 49.4318 6.84075C49.26 7.05176 49.0406 7.24151 48.9294 7.48196C48.2502 8.94758 47.098 9.22402 45.5645 9.17495C42.0229 9.06045 38.4764 9.11279 34.9315 9.15696C34.1034 9.16677 33.2409 9.3009 32.4635 9.57571C31.5225 9.90776 30.9938 10.6929 31.0036 11.73C31.0118 12.6247 31.6616 13.3853 32.6893 13.7109C33.8301 14.0724 34.9888 14.3766 36.1311 14.7365C36.6745 14.9082 37.2096 15.1192 37.7235 15.3646C40.5827 16.7206 41.9656 18.8307 41.6088 21.9664C40.9329 27.9304 38.1965 32.5873 32.5126 35.1325C29.9366 36.2857 27.1805 36.7126 24.3885 36.7306C16.3724 36.7814 8.3547 36.7617 0.338615 36.7683C0.263331 36.7683 0.189684 36.7388 0.0292969 36.7061C1.14219 33.6227 2.24526 30.5655 3.35815 27.4822C3.75584 27.4822 4.10771 27.4822 4.45958 27.4822C11.0044 27.4822 17.5491 27.4985 24.0923 27.4674C25.3115 27.4625 26.5374 27.3251 27.7452 27.1534C28.5798 27.034 29.1445 26.4729 29.4669 25.6812C29.9971 24.3743 29.6142 23.3388 28.2902 22.8432C27.1462 22.4146 25.9564 22.1055 24.7829 21.762C23.0809 21.2647 21.5604 20.4681 20.3019 19.1906C18.9124 17.7789 18.5409 16.0696 18.9272 14.2114C19.5818 11.061 20.8043 8.13298 22.6799 5.50271C24.8697 2.43243 27.9285 0.837579 31.6387 0.691998C36.0231 0.520245 40.4141 0.551324 44.8035 0.521881C48.3484 0.49898 51.8932 0.516974 55.4381 0.516974H56.2237H56.2221Z" fill="white"/>
<path d="M145.889 0.534882C149.309 0.534882 152.689 0.503803 156.067 0.546333C157.972 0.570869 159.877 0.682099 161.775 0.829316C162.553 0.889838 163.332 1.09758 164.083 1.32985C168.17 2.59592 169.932 5.67929 169.009 9.86188C167.8 15.3432 164.24 18.7505 159.273 20.9244C158.979 21.0536 158.686 21.1828 158.375 21.317C160.918 26.1997 161.982 31.4929 163.412 36.7878C162.831 36.7878 162.352 36.7878 161.87 36.7878C158.735 36.7878 155.599 36.7747 152.463 36.7993C151.913 36.8042 151.669 36.6913 151.535 36.0926C150.71 32.4318 149.828 28.7825 148.962 25.1299C148.9 24.8682 148.82 24.613 148.683 24.1206C148.499 24.559 148.385 24.8076 148.29 25.0628C146.92 28.7318 145.54 32.3958 144.198 36.0746C143.997 36.6259 143.732 36.8074 143.144 36.8025C139.982 36.7715 136.819 36.7878 133.655 36.7862C133.418 36.7862 133.181 36.7649 132.812 36.7485C137.186 24.6359 141.531 12.6001 145.887 0.533247L145.889 0.534882ZM149.98 16.804C150.743 16.804 151.313 16.8121 151.881 16.804C155.658 16.7385 158.091 14.6857 158.823 10.9562C159.129 9.39569 158.542 8.44205 156.975 8.21141C155.879 8.05111 154.754 8.04784 153.643 8.04784C153.429 8.04784 153.11 8.35699 153.02 8.59254C152.234 10.6454 151.488 12.713 150.73 14.7773C150.499 15.4054 150.267 16.0319 149.98 16.8056V16.804Z" fill="white"/>
<path d="M114.615 37.4829C113.22 37.2686 111.797 37.1688 110.438 36.8172C106.175 35.7163 103.643 32.4465 103.458 28.0398C103.291 24.0747 104.394 20.3927 105.933 16.8153C108.211 11.5155 111.392 6.88474 116.217 3.56745C120.476 0.639477 125.164 -0.644579 130.321 0.310693C135.123 1.20054 137.879 4.54236 137.994 9.47248C138.071 12.8012 137.229 15.9402 136.038 19.0072C134.22 23.6903 131.919 28.0872 128.3 31.6662C124.521 35.4055 119.975 37.3324 114.613 37.4813L114.615 37.4829ZM113.944 24.9204C113.919 28.1903 114.9 29.1603 117.26 29.1112C118.747 29.0801 120.068 28.5747 121.042 27.4574C121.822 26.5611 122.551 25.5845 123.11 24.5409C124.947 21.1255 126.277 17.4991 127.192 13.7352C127.464 12.6164 127.536 11.4239 127.516 10.2691C127.498 9.17641 126.835 8.51721 125.742 8.34872C125.056 8.2424 124.323 8.21132 123.644 8.334C121.561 8.71022 120.23 10.1611 119.071 11.7821C117.263 14.3126 116.116 17.167 115.197 20.1081C114.618 21.9663 114.211 23.8801 113.942 24.922L113.944 24.9204Z" fill="white"/>
<path d="M55.0054 37.4959C53.5325 37.2554 52.0235 37.1491 50.5948 36.75C46.5033 35.6049 44.0484 32.2648 43.8962 27.9022C43.7751 24.4557 44.631 21.2088 45.8765 18.0469C48.0613 12.5001 51.1725 7.59451 56.0463 4.00897C60.4504 0.768564 65.3537 -0.690517 70.8265 0.320371C75.5039 1.18404 78.273 4.50132 78.4334 9.2826C78.5463 12.6702 77.7051 15.8615 76.4973 18.9825C74.6627 23.7213 72.324 28.1525 68.6563 31.7642C64.9036 35.4594 60.2966 37.3372 55.0071 37.4959H55.0054ZM54.3802 25.4993C54.3606 27.9366 55.1495 28.936 56.9988 29.0931C58.6845 29.2354 60.2131 28.8035 61.3964 27.5571C62.0657 26.8521 62.6942 26.0735 63.177 25.2327C65.2211 21.6717 66.6106 17.8375 67.6105 13.8708C67.9035 12.7046 67.9919 11.4549 67.9591 10.2493C67.9297 9.12066 67.2767 8.56123 66.1752 8.32896C63.8169 7.83169 62.0346 8.86712 60.5355 10.529C58.4341 12.8583 57.2198 15.6849 56.1658 18.5867C55.3098 20.9405 54.521 23.3156 54.3819 25.501L54.3802 25.4993Z" fill="white"/>
<path d="M115.921 0.516534C113.532 2.22752 111.273 3.97613 109.334 6.10095C108.637 6.86321 107.958 7.65491 107.373 8.50386C107.013 9.02893 106.624 9.1647 106.028 9.15979C102.675 9.13198 99.3213 9.14016 95.9679 9.14016C94.2298 9.14016 93.6734 9.54255 93.0875 11.1996C92.6636 12.3986 92.243 13.6008 91.7864 14.9012H101.349C101.259 15.2235 101.21 15.4508 101.131 15.6668C100.385 17.7392 99.6159 19.8019 98.899 21.8859C98.719 22.4109 98.4866 22.5909 97.9203 22.5827C95.1676 22.5467 92.4132 22.5778 89.6604 22.5467C89.1318 22.5401 88.9092 22.7152 88.7374 23.201C87.2251 27.4539 85.6687 31.6905 84.1745 35.9483C83.9405 36.6157 83.6246 36.794 82.9552 36.7875C79.9292 36.7515 76.9031 36.7727 73.877 36.7727C73.6102 36.7727 73.3435 36.7727 72.9785 36.7727C73.0816 36.4292 73.1454 36.174 73.2338 35.9271C76.4285 27.0793 79.628 18.2316 82.8227 9.38389C84.3856 5.05571 87.1711 2.00669 91.7831 0.933648C92.8616 0.68338 93.9909 0.541071 95.0972 0.536163C101.912 0.500177 108.728 0.51817 115.543 0.51817C115.668 0.51817 115.794 0.51817 115.918 0.51817L115.921 0.516534Z" fill="white"/>
<path d="M168.621 36.799C171.955 27.5538 175.254 18.4067 178.589 9.15986H172.004C172.305 5.78205 171.423 2.8966 168.745 0.582031H204.443C203.88 2.16216 203.327 3.71775 202.768 5.2717C202.402 6.29567 201.988 7.30493 201.67 8.34526C201.482 8.96193 201.204 9.18112 200.526 9.17294C196.79 9.13205 193.054 9.16804 189.317 9.13859C188.72 9.13368 188.476 9.32997 188.28 9.87795C185.177 18.5327 182.038 27.1743 178.949 35.8339C178.671 36.6158 178.323 36.8366 177.511 36.8202C174.598 36.7614 171.683 36.7973 168.619 36.7973L168.621 36.799Z" fill="white"/>
<path d="M81.8463 51.5649C79.6385 55.2584 77.5289 58.7164 75.4995 62.2218C74.9087 63.2408 74.187 63.7594 73.0103 63.6743C72.3867 63.6285 71.7566 63.6743 71.1298 63.6514C70.1118 63.6138 69.9678 63.4731 70.0644 62.4835C70.3573 59.4459 70.6699 56.4116 70.9825 53.3773C71.2084 51.1822 71.4637 48.9903 71.6699 46.7951C71.7484 45.9576 72.1461 45.565 72.9775 45.5765C73.6305 45.5863 74.2852 45.5765 74.9382 45.583C75.4652 45.5896 75.6141 45.8218 75.5372 46.3682C74.9774 50.3872 74.4505 54.4095 73.9169 58.4318C73.8646 58.8309 73.8269 59.2316 73.9038 59.6815C74.0462 59.4688 74.1968 59.2627 74.3277 59.0452C76.7204 55.0523 79.1508 51.0824 81.4748 47.0503C82.1032 45.9592 82.8577 45.5176 84.0786 45.5209C86.1162 45.5258 86.1604 45.5143 85.9345 47.5148C85.5139 51.2231 85.0786 54.928 84.6465 58.6346C84.6121 58.9307 84.5483 59.2218 84.4992 59.5163L84.7054 59.6046C84.8625 59.3789 85.036 59.1629 85.1751 58.9274C87.5957 54.825 90.0096 50.7192 92.4285 46.6168C92.9703 45.6975 95.0471 45.125 95.9603 45.6681C96.0782 45.7384 96.16 46.0525 96.1044 46.1964C95.9603 46.5743 95.7509 46.9309 95.5365 47.276C92.404 52.3174 89.2552 57.3473 86.1424 62.4001C85.6154 63.2572 84.9542 63.7021 83.9493 63.6661C83.2145 63.64 82.4764 63.6776 81.7415 63.6465C80.8578 63.6073 80.6892 63.3815 80.7858 62.5326C81.1425 59.3936 81.4993 56.2546 81.8414 53.1123C81.8872 52.687 81.8479 52.2519 81.8479 51.5666L81.8463 51.5649Z" fill="white"/>
<path d="M159.846 49.8896C158.74 52.9943 157.706 55.8944 156.671 58.793C156.215 60.0721 155.724 61.3415 155.305 62.6337C155.077 63.3387 154.645 63.6151 153.933 63.6659C151.712 63.8229 151.631 63.7329 152.367 61.6866C154.072 56.956 155.776 52.2255 157.48 47.4949C158.051 45.9082 158.436 45.6367 160.11 45.6367C160.355 45.6367 160.601 45.6367 160.846 45.6367C162.836 45.6367 163.052 45.8216 163.354 47.7992C163.864 51.1623 164.37 54.5253 164.881 57.8884C164.899 58.0111 164.966 58.1272 165.034 58.3153C166.295 54.81 167.525 51.3863 168.756 47.9627C168.858 47.6814 168.933 47.387 169.069 47.1236C169.309 46.6607 169.507 45.9312 169.871 45.8248C170.65 45.5991 171.532 45.6204 172.357 45.6956C172.897 45.7447 172.643 46.2256 172.528 46.5429C171.36 49.7915 170.186 53.0368 169.015 56.2838C168.34 58.1501 167.666 60.0165 166.989 61.8813C166.475 63.2978 165.997 63.6364 164.521 63.6413C162.01 63.6479 161.941 63.571 161.55 61.0585C161.053 57.859 160.522 54.6644 160.013 51.4649C159.94 51.0052 159.912 50.5374 159.843 49.8864L159.846 49.8896Z" fill="white"/>
<path d="M30.9759 53.873C32.9644 54.7154 33.5683 55.9913 32.8727 58.0049C31.7238 61.3352 29.1756 63.0151 25.8435 63.4257C23.6095 63.7005 21.3265 63.5926 19.0647 63.6105C18.2759 63.6171 18.0876 63.2016 18.415 62.2872C19.5066 59.2415 20.6129 56.2006 21.7127 53.1582C22.4525 51.1135 23.1873 49.0655 23.932 47.0225C24.3444 45.8889 24.7175 45.619 25.9352 45.6403C27.9776 45.6746 30.0332 45.6043 32.0577 45.8202C34.6304 46.0934 35.5306 47.7668 34.6304 50.2007C33.9774 51.9657 32.7205 53.1402 30.9743 53.8746L30.9759 53.873ZM22.4901 60.8985C23.8583 60.8249 25.0841 60.8641 26.2707 60.6662C27.688 60.4307 28.6356 59.5179 29.0611 58.121C29.4571 56.8222 28.9318 55.9389 27.5996 55.7982C26.6569 55.6985 25.7011 55.7263 24.7503 55.7246C24.5915 55.7246 24.3346 55.8244 24.2904 55.9422C23.693 57.5305 23.1251 59.1303 22.4901 60.8969V60.8985ZM25.3443 52.9946C26.305 52.9946 27.1773 53.0568 28.0366 52.9799C29.4719 52.8506 30.7844 51.5241 30.9824 50.1075C31.1232 49.1097 30.7059 48.5274 29.6961 48.4358C28.94 48.3671 28.174 48.3802 27.413 48.3965C27.2379 48.3998 26.9629 48.5307 26.9089 48.6713C26.3721 50.0846 25.873 51.5126 25.3427 52.9946H25.3443Z" fill="white"/>
<path d="M184.905 56.1434C183.801 56.1434 182.847 56.1254 181.894 56.1499C181.323 56.1647 181.141 55.9406 181.323 55.4073C181.446 55.0475 181.57 54.6876 181.691 54.3277C181.932 53.6129 182.392 53.3299 183.175 53.3545C184.864 53.4084 186.557 53.3626 188.247 53.3741C189.157 53.3806 189.388 53.6849 189.082 54.5535C188.233 56.9629 187.378 59.3724 186.46 61.7556C186.292 62.1907 185.878 62.6929 185.46 62.8434C182.786 63.8085 180.036 64.2763 177.202 63.6564C174.245 63.0086 172.734 60.9688 173.069 57.9493C173.621 52.9946 177.164 47.3398 183.218 45.7614C185.424 45.1872 187.629 45.1267 189.828 45.7973C190.036 45.8611 190.244 45.9298 190.442 46.0165C191.696 46.571 191.851 46.9325 191.406 48.2313C191.362 48.3605 191.321 48.4898 191.27 48.6157C190.704 50.0372 190.614 50.0683 189.295 49.288C186.516 47.6441 182.964 48.0727 180.365 50.4085C178.601 51.9935 177.539 54.0055 177.14 56.3217C176.593 59.4999 178.402 61.2665 181.65 60.8298C182.765 60.6809 183.644 60.3473 183.892 59.0239C184.069 58.0801 184.524 57.1903 184.904 56.1401L184.905 56.1434Z" fill="white"/>
<path d="M62.005 55.2684C63.0295 56.1255 63.1948 57.2918 63.2537 58.5088C63.3143 59.734 63.437 60.9542 63.4861 62.1794C63.5352 63.4144 63.3192 63.627 62.1163 63.663C61.5991 63.6794 61.0787 63.6401 60.5632 63.6728C59.8087 63.7219 59.4928 63.4324 59.4846 62.6456C59.4683 61.1751 59.3963 59.7045 59.2817 58.2373C59.1557 56.6146 58.0412 55.8425 56.5044 56.294C56.3129 56.3496 56.1443 56.6588 56.0609 56.8861C55.367 58.7738 54.6649 60.6598 54.0299 62.5687C53.7713 63.3457 53.3032 63.6238 52.5307 63.6614C49.9531 63.7906 49.9351 63.7824 50.7992 61.3877C52.5176 56.6326 54.2377 51.8775 55.961 47.124C56.4226 45.8531 56.7352 45.6192 58.051 45.6388C60.1475 45.6699 62.262 45.5734 64.3372 45.8105C66.9934 46.1148 67.9361 47.8405 67.0867 50.3873C66.3224 52.6823 64.9885 53.9713 62.0001 55.2668L62.005 55.2684ZM57.2965 53.4854C58.1885 53.4854 59.0068 53.5443 59.8136 53.474C61.5779 53.3202 62.9117 52.1065 63.2848 50.4053C63.5091 49.3846 63.1523 48.7418 62.1049 48.5733C61.2276 48.431 60.3226 48.4539 59.429 48.4375C59.2899 48.4343 59.0657 48.5864 59.0166 48.7173C58.4339 50.2859 57.8759 51.8644 57.2965 53.4854Z" fill="white"/>
<path d="M5.29233 63.9801C4.67043 63.913 4.04033 63.8803 3.42661 63.7707C0.860413 63.316 -0.399771 61.551 0.112486 58.9944C0.34652 57.8297 0.763854 56.6945 1.16155 55.5691C2.23025 52.5446 3.34805 49.5382 4.41348 46.512C4.61478 45.9395 4.93392 45.6385 5.5231 45.6255C6.17446 45.6107 6.82583 45.6026 7.4772 45.6124C8.16621 45.6222 8.27914 45.933 8.0451 46.5644C6.84711 49.8015 5.66384 53.0452 4.52149 56.3036C4.24491 57.0887 4.03706 57.9279 3.97978 58.7539C3.89795 59.9382 4.61642 60.7005 5.80132 60.8608C7.93381 61.1486 9.60315 60.339 10.7864 58.5887C11.2217 57.9442 11.5327 57.2 11.8044 56.4655C13.0089 53.2006 14.1987 49.9307 15.3427 46.6462C15.5882 45.9428 15.9712 45.5993 16.6896 45.6026C17.3132 45.6058 17.9384 45.6026 18.5619 45.632C19.0447 45.6549 19.2313 45.8643 19.0398 46.3828C17.6618 50.1336 16.3934 53.9268 14.9139 57.6383C13.2921 61.7081 9.72262 63.9523 5.2907 63.9834L5.29233 63.9801Z" fill="white"/>
<path d="M138.697 63.9605C138.28 63.9032 137.568 63.8607 136.881 63.702C134.46 63.1459 133.31 61.4758 133.83 59.05C134.154 57.5434 134.707 56.0811 135.218 54.622C136.152 51.9541 137.151 49.3075 138.077 46.638C138.306 45.9788 138.65 45.614 139.35 45.6107C139.404 45.6107 139.458 45.596 139.512 45.5894C141.908 45.2901 142.108 45.5306 141.313 47.7323C140.234 50.724 139.144 53.7125 138.095 56.7158C137.874 57.3488 137.72 58.0309 137.686 58.6983C137.624 59.9284 138.328 60.7053 139.547 60.8624C141.681 61.1372 143.373 60.3373 144.509 58.5576C145.085 57.6547 145.458 56.6078 145.836 55.592C146.944 52.61 148.028 49.6199 149.073 46.6167C149.306 45.9493 149.664 45.6025 150.355 45.6074C151.032 45.6123 151.713 45.6042 152.389 45.6483C152.793 45.6761 152.933 45.8937 152.774 46.3272C151.366 50.1548 150.118 54.0462 148.546 57.8035C146.812 61.9501 143.437 63.8607 138.696 63.9588L138.697 63.9605Z" fill="white"/>
<path d="M101.051 52.8686C102.798 52.8686 104.377 52.8882 105.956 52.8588C106.645 52.8457 106.866 53.0861 106.619 53.7372C106.542 53.94 106.498 54.1559 106.423 54.3588C105.958 55.6117 105.883 55.6624 104.539 55.6624C103.257 55.6624 101.976 55.6821 100.696 55.6526C100.22 55.6412 99.976 55.7655 99.8157 56.2497C99.3279 57.7153 98.7764 59.1597 98.2036 60.7431H99.1381C100.773 60.7431 102.41 60.7414 104.045 60.7431C104.968 60.7447 105.035 60.8396 104.776 61.7458C104.739 61.8766 104.693 62.0042 104.647 62.1318C104.148 63.5483 104.045 63.622 102.554 63.622C100.019 63.622 97.4835 63.6269 94.9484 63.6203C93.9042 63.6171 93.6653 63.2948 94.0172 62.315C95.8632 57.1755 97.7175 52.0393 99.5783 46.9047C99.9351 45.9216 100.372 45.6353 101.42 45.6353C104.118 45.6321 106.817 45.6583 109.514 45.619C110.292 45.6075 110.431 45.8823 110.19 46.535C110.125 46.7133 110.08 46.8998 110.017 47.0781C109.534 48.421 109.445 48.4815 108.031 48.4815C106.45 48.4815 104.869 48.4979 103.289 48.4717C102.809 48.4635 102.557 48.5928 102.4 49.0769C101.997 50.3103 101.534 51.524 101.05 52.867L101.051 52.8686Z" fill="white"/>
<path d="M42.5495 52.8687C44.245 52.8687 45.8243 52.8654 47.4036 52.8687C48.1908 52.8719 48.3168 53.0339 48.1123 53.7896C48.0272 54.1037 47.8897 54.403 47.785 54.7105C47.5444 55.4204 47.0959 55.7165 46.3071 55.6789C44.9193 55.6134 43.5265 55.6445 42.137 55.6756C41.8948 55.6805 41.5135 55.831 41.4415 56.0109C40.8474 57.524 40.3106 59.0599 39.7067 60.7268H46.3595C46.402 61.8096 46.0501 62.6455 45.4855 63.3848C45.3562 63.5533 44.9995 63.6122 44.7474 63.6139C41.939 63.6286 39.1306 63.6302 36.3222 63.6188C35.4335 63.6155 35.1831 63.2703 35.4859 62.4247C37.3565 57.205 39.2402 51.9903 41.1272 46.7755C41.3809 46.0771 41.8555 45.6354 42.6477 45.6338C45.5379 45.6338 48.4281 45.6338 51.3184 45.6354C51.4477 45.6354 51.5786 45.6747 51.7684 45.7041C51.7635 46.6594 51.4689 47.4953 50.9076 48.2052C50.7505 48.4047 50.3282 48.462 50.0255 48.4669C48.3627 48.4914 46.6966 48.5258 45.0371 48.4571C44.2892 48.426 43.9864 48.6975 43.7802 49.3682C43.4316 50.5067 42.9946 51.619 42.5495 52.8638V52.8687Z" fill="white"/>
<path d="M120.78 63.9998C120.122 63.81 118.968 63.5254 117.852 63.1361C117.092 62.8711 116.847 62.2724 117.171 61.4905C117.357 61.0391 117.505 60.5712 117.708 60.1263C117.996 59.49 118.39 59.3706 118.986 59.8352C120.331 60.882 121.858 61.2337 123.527 60.8444C124.558 60.604 125.367 60.0396 125.868 59.0876C126.387 58.1013 126.246 57.3995 125.329 56.7534C124.732 56.3314 124.074 55.9944 123.437 55.6297C121.054 54.2671 120.516 52.705 121.56 50.163C123.128 46.3485 127.943 44.2727 131.796 45.7498C133.039 46.2274 133.169 46.5071 132.725 47.7716C132.699 47.8485 132.656 47.9204 132.629 47.9973C132.238 49.0387 131.555 49.2944 130.581 48.7645C129.424 48.1347 128.182 47.8926 126.974 48.4439C126.354 48.7268 125.779 49.2912 125.398 49.8686C124.871 50.6668 125.067 51.3653 125.853 51.928C126.491 52.3844 127.2 52.7442 127.886 53.1335C130.375 54.5452 130.958 56.1858 129.742 58.7817C128.079 62.328 125.067 63.7609 120.78 63.9998V63.9998Z" fill="white"/>
<path d="M110.355 63.6905C108.561 63.6987 108.502 63.6169 109.1 61.9631C110.911 56.9545 112.751 51.9557 114.505 46.9274C114.842 45.9623 115.353 45.6074 116.315 45.5419C118.508 45.3915 118.662 45.555 117.934 47.5752C116.202 52.381 114.473 57.1884 112.741 61.9942C112.162 63.6022 112.047 63.6807 110.355 63.6888V63.6905Z" fill="white"/>
<path d="M15.5562 44.029C14.1994 44.0257 13.9245 43.6152 14.4057 42.3066C14.9425 40.8475 16.093 40.2652 17.579 40.6659C18.0585 40.7951 18.2451 41.052 18.214 41.5427C18.1175 43.077 17.1077 44.0323 15.5562 44.029V44.029Z" fill="white"/>
<path d="M9.56007 44.0276C8.19023 44.0276 7.90219 43.6138 8.3768 42.3199C8.91197 40.8575 10.0429 40.2769 11.542 40.6596C12.0199 40.7823 12.2605 41.0293 12.1803 41.52C11.9282 43.0527 11.2376 44.1274 9.5617 44.0276H9.56007Z" fill="white"/>
</g>
<defs>
<clipPath id="clip0_95_1949">
<rect width="204.444" height="64" fill="white"/>
</clipPath>
</defs>
</svg>
