<svg width="53" height="24" viewBox="0 0 53 24" fill="none" xmlns="http://www.w3.org/2000/svg">
<path d="M52.1666 19.6019C50.864 19.6019 49.5614 19.6019 48.2395 19.6019C48.0958 18.9056 47.9416 18.2244 47.82 17.5373C47.7694 17.2522 47.679 17.1416 47.3634 17.1457C45.7888 17.1661 44.2136 17.1612 42.6387 17.1485C42.4003 17.1466 42.3056 17.2261 42.233 17.4451C42.0162 18.0997 41.7788 18.7477 41.536 19.3932C41.5031 19.4809 41.3939 19.6011 41.3192 19.6018C39.8997 19.6142 38.48 19.6109 37.0195 19.6109C37.2857 18.9645 37.5377 18.3473 37.7935 17.7318C39.6239 13.3281 41.4548 8.92464 43.2857 4.52118C43.6823 3.56744 44.2767 3.16806 45.2993 3.16801C46.439 3.16793 47.5785 3.16799 48.7472 3.16799C48.8613 3.70486 48.9759 4.23389 49.0857 4.76397C49.9864 9.11583 50.8849 13.4681 51.7878 17.8195C51.9034 18.3769 52.0398 18.93 52.1666 19.485C52.1666 19.5239 52.1666 19.563 52.1666 19.6019ZM47.0267 13.762C46.6081 11.7385 46.1952 9.74203 45.7823 7.74568C45.7655 7.74234 45.7486 7.739 45.7318 7.73565C45.0123 9.73706 44.2928 11.7385 43.5653 13.762C44.7403 13.762 45.8652 13.762 47.0267 13.762Z" fill="white"/>
<path d="M35.06 2.87549C35.5782 2.97253 36.1004 3.05232 36.6136 3.17169C37.0819 3.28062 37.5404 3.43244 38.0381 3.57539C37.7872 4.75833 37.5423 5.91291 37.3027 7.04259C36.6462 6.84841 36.0186 6.62482 35.3736 6.48123C34.4911 6.28484 33.5871 6.20999 32.7044 6.45804C32.3456 6.55887 31.9823 6.75249 31.6999 6.99657C31.2153 7.41522 31.2088 8.0179 31.6717 8.45744C31.9907 8.76056 32.369 9.00933 32.747 9.23859C33.6062 9.75965 34.5085 10.2128 35.3436 10.7694C36.327 11.4249 37.0443 12.3261 37.1949 13.5447C37.4612 15.6999 36.671 17.3976 34.8757 18.5986C33.7468 19.3538 32.4693 19.6911 31.1381 19.8161C29.2795 19.9905 27.4576 19.7805 25.6817 19.1922C25.5627 19.1528 25.4468 19.1035 25.3306 19.0556C25.296 19.0413 25.2659 19.016 25.2129 18.9826C25.4638 17.7979 25.7149 16.6113 25.9732 15.3916C26.2759 15.5249 26.5601 15.6585 26.8505 15.7765C28.238 16.3404 29.6709 16.5982 31.1559 16.3176C31.5422 16.2446 31.9362 16.0726 32.2637 15.8512C32.9744 15.3708 33.0426 14.468 32.3955 13.9038C31.9702 13.5329 31.459 13.259 30.9744 12.9613C30.2175 12.4964 29.4134 12.1001 28.6972 11.5798C27.7791 10.9127 27.1141 10.0234 26.9882 8.84133C26.7994 7.07145 27.4507 5.63435 28.7979 4.5177C29.97 3.54611 31.3617 3.11493 32.8444 2.93385C32.9268 2.92378 33.007 2.89536 33.0882 2.87549C33.7454 2.87549 34.4027 2.87549 35.06 2.87549Z" fill="white"/>
<path d="M19.7872 3.18124C19.5666 3.7166 19.3577 4.22703 19.1459 4.73627C17.1248 9.59858 15.1012 14.4598 13.0881 19.3256C12.9923 19.5574 12.8749 19.6184 12.6419 19.6163C11.3662 19.6057 10.0902 19.6014 8.81473 19.6192C8.5443 19.623 8.45623 19.5273 8.39397 19.2827C7.31246 15.0327 6.21287 10.7872 5.14372 6.53411C4.94748 5.75382 4.5549 5.2209 3.81833 4.89385C2.63778 4.36959 1.41228 4.00131 0.16226 3.70196C0.10699 3.68873 0.0519361 3.67424 0 3.66116C0.00623664 3.16789 0.00623693 3.16787 0.471404 3.16786C2.7039 3.16786 4.93651 3.16735 7.16902 3.16808C8.22795 3.16843 8.99226 3.78874 9.19248 4.84569C9.75926 7.83786 10.3139 10.8323 10.8737 13.8258C10.8982 13.9567 10.9262 14.087 10.9633 14.2713C11.0211 14.1616 11.0615 14.0999 11.0879 14.0326C12.4746 10.4959 13.8616 6.95931 15.241 3.41974C15.3164 3.22652 15.4092 3.16098 15.6161 3.16263C16.9111 3.17298 18.2062 3.16764 19.5013 3.16836C19.585 3.16841 19.6686 3.1757 19.7872 3.18124Z" fill="white"/>
<path d="M18.0977 19.6114C19.264 14.1148 20.4221 8.65689 21.5831 3.18555C22.9952 3.18555 24.3909 3.18555 25.8131 3.18555C25.6371 4.01887 25.465 4.83627 25.2916 5.65343C24.3333 10.1727 23.3714 14.6911 22.4236 19.2126C22.3577 19.5267 22.2474 19.6266 21.9239 19.6202C20.7648 19.5977 19.6048 19.6114 18.4451 19.6114C18.3411 19.6114 18.2371 19.6114 18.0977 19.6114Z" fill="white"/>
</svg>
